<svg xmlns="http://www.w3.org/2000/svg" xmlns:xlink="http://www.w3.org/1999/xlink" width="770.248" height="187.009" viewBox="0 0 770.248 187.009">
  <defs>
    <radialGradient id="radial-gradient" cx="0.635" cy="0.937" r="0.308" gradientTransform="translate(0 -0.733) scale(1 1.782)" gradientUnits="objectBoundingBox">
      <stop offset="0" stop-color="#60afff"/>
      <stop offset="0.507" stop-color="#0086ce"/>
      <stop offset="1" stop-color="#0046e2"/>
    </radialGradient>
  </defs>
  <path id="copy_bl" d="M20343.877,12703.473c19.5-18.722,28.076-48.168,28.076-96.918v-73.708h18.721v46.993c4.1-7.41,7.8-14.625,11.313-22.231l12.09,12.678c-6.045,9.945-14.234,20.865-23.4,32.172v.783c0,16.769-.777,32.172-2.338,43.483,8.971,8.188,18.133,17.16,25.936,25.741l-12.873,17.355a177.178,177.178,0,0,0-16.377-23.205c-4.875,21.644-13.26,38.608-26.328,52.456Zm-195.588.19c18.135-17.938,26.133-47.384,26.133-94.965v-75.852h18.525v47.581a211.061,211.061,0,0,0,11.5-23.015l11.895,14.238a180.64,180.64,0,0,1-22.422,32.172l-.975.979a369.82,369.82,0,0,1-1.953,41.34,244.115,244.115,0,0,1,23.6,26.91l-10.92,18.717a192.439,192.439,0,0,0-15.795-25.349c-4.488,21.839-12.482,39-24.963,52.651Zm243.555-.974c27.3-6.437,40.563-23.4,40.949-52.26h-26.715v-16.769h20.088v-20.866h-24.572v-16.964h24.572v-21.062h18.135v21.063h40.17v-21.062h18.33v21.063h25.936v16.964H20502.8v20.866h23.01v16.769h-37.244v39.975c0,4.875,1.361,5.658,10.137,5.658,7.41,0,9.363-.783,10.533-4.488.779-2.922,1.557-9.555,1.752-17.743l.2-4.68,17.939,5.653c-.2,17.356-.975,23.4-3.705,29.838-3.705,8.771-8.58,10.528-29.832,10.528-13.455,0-17.553-.588-21.062-2.731-3.51-2.34-5.266-6.24-5.266-11.894v-50.116H20452.1c-.391,36.465-14.82,56.939-47.58,67.858Zm52.457-69.028h40.17v-20.866h-40.17Zm-684.838,66.688c38.8-5.267,54.012-21.062,55.377-57.33h-55.965v-17.547h185.25v17.547h-60.061v45.437c0,6.24,2.34,7.215,15.6,7.215,19.115,0,19.115,0,20.48-29.055l21.057,6.045c-1.949,39.975-4.484,42.51-42.119,42.51-14.043,0-22.428-.588-26.715-2.144-6.436-2.34-9.357-7.024-9.357-15.409v-54.6h-26.91c-1.367,45.24-21.453,68.446-65.133,75.078Zm482.039-29.25,16.182-2.535a254.979,254.979,0,0,1,6.633,44.463l-18.918,4.287A327.814,327.814,0,0,0,20241.5,12671.1Zm-38.223,35.883c6.828-10.533,12.873-26.328,15.4-40.758l15.99,3.9c-2.922,18.33-7.8,33.347-15.4,46.993Zm64.742-37.444,15.795-4.875c6.822,12.481,11.5,25.741,15.795,43.875l-18.723,6.241C20276.992,12696.063,20272.9,12681.628,20268.021,12669.538Zm29.832-.582,16.773-7.019c6.627,9.554,14.625,24.957,22.031,42.705l-17.939,9.555C20313.066,12698.4,20304.289,12679.68,20297.854,12668.956Zm-341.051,41.922v-18.521h78.387V12659.4h-60.057v-17.943h60.057v-28.08h-40.947v-7.993a232.767,232.767,0,0,1-29.252,17.552l-13.062-17.552c37.439-15.99,62.592-38.222,81.705-72.538h22.422q31.887,43.582,85.215,66.3l-12.285,18.134a273.763,273.763,0,0,1-28.467-16.181v12.28h-44.07v28.08h61.617v17.943h-61.617v32.956H20136v18.521Zm51.285-115.825h83.459a200.06,200.06,0,0,1-45.824-43.685C20036.359,12567.555,20024.27,12581.6,20008.088,12595.053Zm240.824,57.521c15.795-12.867,25.932-34.125,28.859-60.252H20261.2c-7.605,30.807-21.061,53.821-42.514,72.733l-12.09-12.867c9.75-7.8,16.965-16.187,23.988-28.081a163.339,163.339,0,0,0-13.65-12.677c-2.34,3.705-3.9,6.045-8,11.507l-10.529-12.48c13.848-19.3,23.01-45.829,27.3-78.393l16.572,2.34c-.973,5.854-1.947,11.312-2.338,13.068h19.891l7.6,5.85c-.975,10.528-1.557,14.233-2.727,22.035h13.842v-42.51h18.525v42.51h34.709v16.965h-31.395c5.658,22.618,16.965,40.752,34.32,55.182l-11.7,17.748c-16.773-16.187-26.715-33.151-32.955-55.965-4.293,25.349-12.873,42.9-28.668,58.7Zm-25.545-53.233a129.611,129.611,0,0,1,14.037,11.508l.393-.588.582-1.365c1.17-2.731,2.145-5.653,3.9-10.92a141.221,141.221,0,0,0-13.846-10.333C20226.877,12591.538,20225.707,12594.27,20223.367,12599.34Zm9.555-24.767a98.388,98.388,0,0,1,13.455,8.58c1.752-7.6,2.145-10.528,3.51-19.7h-14.234C20234.869,12567.163,20234.287,12569.7,20232.922,12574.573Zm108.807,51.481c3.51-17.16,4.875-32.955,5.07-55.573l16.965.974c-.2,28.473-1.752,45.438-5.457,62.4Zm-196.166-.582c3.51-14.625,5.262-30.616,5.654-55.187l16.186.777c0,28.081-1.561,44.85-5.854,62.4Zm-348.857-19.114v-16.572H19906.1v16.572Zm119.34-10.527v-25.741h-129.678v25.741h-20.859v-42.9h74.877v-20.083h21.061v20.083h75.857v42.9Zm538.4-8.973v-19.7h-42.705v-16.182h42.705v-17.944h19.109v17.944h46.018v16.182h-46.018v19.7Zm-154.83-43.092,13.455-7.41c6.24,7.992,10.527,14.625,16.572,26.323l-14.43,9.167A130.229,130.229,0,0,0,20299.611,12543.767Z" transform="translate(-19758.875 -12532.063)" fill="url(#radial-gradient)"/>
</svg>
