<svg xmlns="http://www.w3.org/2000/svg" width="382.195" height="92.662" viewBox="0 0 382.195 92.662">
  <path id="交差_14" data-name="交差 14" d="M314.772,86.835c13.93-4.274,20.508-13.4,20.8-28.848H320.286V51.673h12.478V38.755h-14.22V32.344h14.22V20.689h6.772V32.344h21.088V20.689h6.868V32.344h14.413v6.411H367.492V51.673h13.253v6.314H361.108V80.813c0,2.72.677,3.108,5.707,3.108,5.707,0,6.965-.389,7.448-2.331.484-1.457.967-6.9,1.064-11.267l6.868,2.72c-.1,6.6-.58,10.49-1.838,13.307-1.645,3.788-4.45,4.759-13.736,4.759-10.157,0-12.575-1.36-12.575-6.9V57.987H342.535c-.29,18.261-7.448,29.042-23.119,34.675Zm24.764-35.162h21.088V38.755H339.536ZM193.855,86.543c9.287-10.3,12.286-21.854,12.286-47.3V.195h6.965V25.157a110.455,110.455,0,0,0,7.738-12.822l4.74,5.537a107.2,107.2,0,0,1-12.478,16.221V39.92a178.174,178.174,0,0,1-.774,17.872,106.935,106.935,0,0,1,12.188,13.7l-4.256,6.9a113.274,113.274,0,0,0-8.319-12.044l-.58-.777c-1.838,10.879-5.8,19.523-12.188,26.711Zm97.411-.194c10.351-10.3,13.93-22.632,13.93-47.691V.195h7.061V27a119.406,119.406,0,0,0,7.448-13.21l4.643,5.342a112.951,112.951,0,0,1-12.092,16.124v3.4c0,7.187-.387,14.763-.871,19.037a184.212,184.212,0,0,1,13.543,13.89l-4.837,6.7a131.736,131.736,0,0,0-9.867-13.016l-.1.486c-2.225,11.073-6.481,19.232-13.543,26.419ZM220.36,88a66.507,66.507,0,0,0,8.416-20.98l6.094,1.651c-1.935,9.325-4.934,17.483-8.609,23.409ZM1.451,85.572C21.185,81.881,29.31,72.848,29.6,54H0V47.4H91.9V54H60.749V79.55c0,3.3,1.547,3.885,9.48,3.885,8.416,0,10.351-.583,11.221-3.205.677-1.943,1.064-5.828,1.258-11.753L90.253,71.1c-.58,18.261-1.741,19.426-19.83,19.426-9.577,0-12.769-.389-14.8-1.845-1.741-1.166-2.515-3.205-2.515-6.216V54H37.339C36.856,76.053,27.472,87.417,5.611,92.08ZM239.707,69.254l6.094-1.069a124.442,124.442,0,0,1,3.1,21.563L241.932,91.3A164.858,164.858,0,0,0,239.707,69.254Zm28.536-1.166,6-3.011a127.6,127.6,0,0,1,11.7,21.466l-6.385,3.885A136.063,136.063,0,0,0,268.243,68.089Zm-14.607.292,5.9-2.04a99.825,99.825,0,0,1,7.546,20.883l-6.772,2.623A132.1,132.1,0,0,0,253.636,68.38ZM98.088,88.389v-6.8h40.435V62.261H107.471V55.656h31.051v-16.8H116.758V34.093a124.626,124.626,0,0,1-15.671,9.519L96.154,37.4c18.766-8.548,32.212-20.592,41.6-37.2h8.222c11.9,15.735,25.151,26.322,43.337,34.772l-4.547,6.6a134.307,134.307,0,0,1-15.671-9.227v6.508H146.165v16.8h31.729v6.605H146.165V81.59H187.18v6.8ZM119.466,32.15H168.9A114.747,114.747,0,0,1,142.2,6.8,85.781,85.781,0,0,1,119.466,32.15Zm123.626,27.39c9.287-7.479,14.607-18.26,15.768-31.859h-9.867c-3.966,15.541-11.221,27.78-21.668,36.91l-4.546-4.953a55.268,55.268,0,0,0,13.252-15.833,75.546,75.546,0,0,0-8.9-7.576,57.517,57.517,0,0,1-4.643,6.9l-4.159-4.954C225.68,28.265,230.323,16.124,232.935,0l6.385.971a65.589,65.589,0,0,1-1.354,6.508H248.9l3.1,2.526c-.774,6.313-1.161,9.616-1.548,11.364h8.609V.195h6.772V21.369H283.43v6.313H267.179A58.472,58.472,0,0,0,285.849,57.6l-4.643,6.216A62.116,62.116,0,0,1,263.7,34.87c-1.935,12.724-6.578,21.66-15.768,30.111Zm-10.641-34c-.967,2.331-1.451,3.5-2.708,6.022a83.1,83.1,0,0,1,8.9,6.9,73.348,73.348,0,0,0,2.9-7.576,67.4,67.4,0,0,0-8.706-6.314Zm2.225-6.119a71.808,71.808,0,0,1,8.513,5.633A96.876,96.876,0,0,0,245.317,13.5h-9A42.772,42.772,0,0,1,234.676,19.426ZM290.4,45.749A118.175,118.175,0,0,0,293.2,19.62l6.578.389c-.1,11.947-1.161,21.466-3.1,28.653ZM192.5,45.457a105.146,105.146,0,0,0,2.806-26.031l6.384.486c0,11.364-1.16,21.66-3.192,28.653ZM17.122,35.938v-6.41H74.679v6.41Zm63.264-5.245V17.58H11.125V30.693H3.579V11.17h38.21V.195h7.642V11.17h38.6V30.693ZM346.4,28.071V16.124H324.832V9.907H346.4V.292h7.061V9.907h23.6v6.216h-23.6V28.071ZM268.533,4.953l5.03-2.914A83.337,83.337,0,0,1,281.3,15.93l-5.513,3.5A69.844,69.844,0,0,0,268.533,4.953Z" fill="#fff"/>
</svg>
